<?xml version="1.0" standalone="no"?>
<!DOCTYPE svg PUBLIC "-//W3C//DTD SVG 20010904//EN"
 "http://www.w3.org/TR/2001/REC-SVG-20010904/DTD/svg10.dtd">
<svg version="1.0" xmlns="http://www.w3.org/2000/svg"
 width="1280.000000pt" height="545.000000pt" viewBox="0 0 1280.000000 545.000000"
 preserveAspectRatio="xMidYMid meet">

<g transform="translate(0.000000,545.000000) scale(0.100000,-0.100000)"
fill="#000000" stroke="none">
<path d="M0 4605 c0 -465 3 -845 8 -845 7 0 208 41 417 85 66 14 199 39 295
55 96 17 198 35 225 40 28 6 147 28 265 50 267 50 358 67 685 130 143 27 368
68 500 90 132 21 267 44 300 49 93 16 148 17 153 3 2 -6 -5 -12 -15 -13 -10 0
-25 -2 -33 -4 -64 -15 -128 -28 -205 -41 -49 -8 -124 -21 -165 -29 -131 -26
-501 -95 -615 -116 -60 -11 -189 -35 -285 -54 -96 -19 -218 -42 -270 -50 -52
-9 -187 -34 -300 -56 -255 -50 -377 -73 -555 -105 -77 -14 -189 -37 -250 -50
-60 -14 -120 -27 -132 -30 l-23 -4 0 -1855 0 -1855 2105 0 2105 0 0 20 c0 33
-28 90 -47 97 -25 10 -43 29 -43 47 0 9 -5 16 -10 16 -6 0 -9 3 -8 8 6 19 -31
54 -66 63 -29 8 -36 13 -25 20 11 7 11 9 -3 9 -9 0 -19 9 -23 19 -3 11 -15 23
-26 26 -12 4 -19 15 -19 32 0 18 -4 24 -15 20 -8 -4 -17 -2 -20 3 -4 6 2 10
12 10 17 1 17 1 1 14 -10 7 -18 18 -18 25 0 6 -9 11 -20 11 -11 0 -20 6 -20
14 0 17 -31 31 -77 35 -7 0 -13 8 -13 17 0 8 -5 12 -11 9 -13 -9 -59 33 -59
54 0 9 -21 27 -46 40 -33 18 -47 32 -51 53 -3 15 -9 28 -14 28 -5 0 -9 11 -9
25 0 14 -5 25 -11 25 -5 0 -7 5 -4 10 3 6 0 13 -9 16 -8 3 -12 12 -9 20 4 10
-2 17 -16 21 -12 3 -21 13 -21 24 0 21 -26 26 -33 6 -4 -7 -6 -6 -6 5 -1 9
-12 25 -26 36 -19 15 -25 30 -27 66 -3 49 -19 63 -58 51 -17 -5 -20 -2 -20 20
0 30 20 55 47 56 16 0 16 1 -2 9 -11 5 -28 11 -39 14 -17 6 -18 8 -2 24 20 24
20 32 -1 32 -15 0 -14 2 3 18 10 10 28 23 38 29 17 10 16 11 -15 18 -19 3 -43
9 -54 13 -17 5 -16 7 9 11 35 7 47 31 16 31 -18 0 -20 3 -11 14 7 8 26 18 43
21 21 5 27 10 19 18 -6 6 -7 16 -1 28 7 12 5 19 -6 23 -12 5 -14 9 -5 20 8 10
6 17 -8 30 -20 18 -18 54 3 68 8 5 7 8 -1 8 -8 0 -13 14 -13 35 0 19 -4 35 -9
35 -5 0 -12 15 -15 32 -4 18 -9 45 -13 60 -3 17 -1 28 6 28 6 0 11 12 11 26 0
29 21 54 44 54 9 0 16 8 16 20 0 13 7 20 20 20 13 0 20 7 20 20 0 13 7 20 20
20 17 0 20 7 20 39 l0 40 48 6 c26 3 63 10 82 15 34 9 -36 7 -191 -6 -53 -4
-57 -3 -83 28 -25 30 -25 34 -9 45 9 7 29 13 45 13 15 0 28 4 28 9 0 4 15 11
33 15 17 3 72 16 121 30 70 18 96 21 118 14 16 -6 26 -15 23 -22 -3 -6 -8 -19
-11 -28 -4 -10 -15 -18 -26 -18 -17 0 -19 -5 -13 -33 4 -17 23 -68 42 -112 20
-44 57 -132 83 -195 26 -64 68 -144 94 -181 l48 -67 85 44 c47 25 102 57 122
73 20 16 74 40 121 55 82 25 89 29 173 112 56 55 91 84 98 77 6 -6 39 20 92
71 200 196 536 517 582 557 28 24 52 47 55 51 3 3 21 19 41 35 43 34 162 139
244 213 33 31 80 73 105 95 24 21 45 46 45 55 0 15 91 50 410 156 77 26 149
50 160 55 40 16 193 59 212 59 10 0 23 -12 31 -29 8 -17 22 -31 37 -34 29 -5
264 45 273 59 11 15 50 34 69 34 11 0 14 -3 7 -8 -6 -4 -12 -33 -13 -64 -2
-53 -1 -58 18 -58 12 0 21 -5 21 -11 0 -5 4 -8 8 -5 11 7 74 -58 66 -67 -7 -6
10 -11 29 -8 4 0 7 -5 7 -13 0 -9 16 -16 45 -20 46 -7 66 -23 46 -36 -9 -5 -8
-10 4 -20 8 -7 15 -10 15 -7 0 3 11 -5 25 -19 14 -14 25 -28 25 -33 0 -4 11
-17 25 -29 14 -12 25 -29 25 -38 0 -19 49 -60 67 -56 7 2 13 -2 13 -8 0 -6 4
-9 9 -5 6 3 15 -4 21 -16 8 -15 9 -19 1 -15 -17 11 -13 -5 11 -41 13 -18 30
-33 39 -33 9 0 22 -7 29 -15 7 -8 18 -15 24 -15 15 0 48 -39 41 -49 -2 -5 9
-14 25 -21 17 -7 30 -18 30 -24 0 -8 2 -8 8 1 9 14 42 -7 46 -30 1 -8 8 -21
16 -30 34 -37 40 -47 37 -59 -2 -7 -2 -10 0 -5 8 13 25 7 20 -7 -3 -7 0 -19 6
-25 8 -8 6 -11 -9 -11 -12 0 -15 -3 -7 -8 7 -4 12 -25 11 -47 -1 -29 6 -51 25
-79 15 -21 27 -51 27 -65 0 -26 12 -49 59 -112 14 -18 19 -29 12 -24 -11 6
-12 2 -7 -21 4 -16 12 -30 17 -32 5 -2 16 -20 26 -39 14 -30 18 -33 23 -18 6
18 7 18 14 0 3 -10 2 -21 -3 -24 -11 -7 -9 -25 7 -61 12 -28 26 -85 20 -86 -6
-1 35 -39 43 -39 4 0 18 -13 31 -30 31 -40 79 -83 101 -90 10 -4 17 -16 17
-31 0 -15 6 -24 15 -24 8 0 15 -5 15 -11 0 -5 4 -8 9 -4 5 3 18 -6 29 -20 11
-14 24 -25 29 -25 5 0 19 -13 31 -29 15 -20 36 -32 72 -41 27 -7 53 -18 58
-25 8 -15 94 -70 104 -67 4 1 10 -8 13 -20 6 -16 9 -18 16 -7 6 10 9 11 9 2 0
-7 6 -13 14 -13 8 0 21 -8 28 -17 7 -10 20 -18 28 -18 8 0 14 -6 12 -13 -2
-14 14 -16 23 -3 5 9 94 -34 105 -50 3 -4 18 -11 33 -14 15 -4 27 -11 27 -16
0 -5 13 -15 30 -24 16 -8 38 -32 49 -53 19 -39 34 -132 20 -132 -4 0 -10 -9
-14 -19 -3 -11 -26 -31 -50 -45 -31 -19 -45 -34 -50 -57 -7 -32 -42 -53 -70
-43 -18 7 -20 -7 -3 -25 11 -11 9 -12 -9 -6 -15 4 -23 2 -23 -6 0 -7 -7 -19
-15 -28 -39 -42 -75 -90 -75 -99 0 -6 -10 -14 -21 -17 -17 -6 -19 -9 -8 -16
12 -8 12 -11 -1 -19 -8 -5 -21 -10 -27 -10 -7 0 -13 -7 -13 -15 0 -8 -4 -15
-9 -15 -5 0 -25 -24 -44 -53 -20 -30 -43 -59 -51 -66 -9 -8 -16 -22 -16 -32 0
-11 -9 -28 -20 -39 -11 -11 -20 -24 -20 -30 0 -5 -6 -10 -12 -10 -10 0 -10 -2
0 -9 11 -7 10 -9 -3 -14 -13 -6 -15 -21 -13 -89 l3 -83 2263 -3 2262 -2 0
2725 0 2725 -6400 0 -6400 0 0 -845z m6747 239 c-3 -3 -12 -4 -19 -1 -8 3 -5
6 6 6 11 1 17 -2 13 -5z m68 -19 c39 -17 21 -18 -25 0 -19 7 -28 14 -20 14 8
0 29 -6 45 -14z m211 -69 c38 -14 64 -25 58 -25 -5 -1 -41 10 -80 23 -38 14
-64 25 -58 25 5 1 41 -10 80 -23z m2593 -15 c13 -1 21 -4 17 -8 -14 -14 -376
-143 -402 -143 -18 0 -18 -14 1 -30 22 -18 0 -43 -25 -30 -30 16 -46 12 -194
-46 -216 -85 -224 -88 -338 -124 -59 -19 -104 -38 -102 -42 3 -4 -1 -8 -8 -8
-11 0 -68 -22 -195 -76 -17 -8 -35 -14 -40 -14 -4 0 -30 -10 -58 -24 -27 -13
-84 -34 -125 -47 -41 -12 -79 -26 -85 -29 -5 -4 -59 -23 -120 -43 -165 -54
-216 -73 -208 -80 3 -4 -3 -7 -15 -7 -12 0 -22 -4 -22 -10 0 -5 -14 -10 -30
-10 -17 0 -33 -6 -36 -14 -3 -8 -19 -19 -36 -25 -44 -16 -46 -14 -10 12 17 13
55 59 83 103 28 43 59 88 69 99 9 11 25 32 35 47 l17 28 -48 -19 c-27 -11
-291 -99 -586 -196 -1298 -425 -1661 -548 -1803 -610 -186 -80 -594 -207 -880
-273 -212 -49 -319 -67 -515 -87 -108 -10 -158 -19 -166 -29 -5 -8 -17 -14
-25 -13 -7 1 -31 -3 -52 -7 -30 -7 -42 -5 -56 8 -17 16 -19 16 -23 -2 -3 -11
-24 -25 -54 -36 -27 -9 -64 -24 -82 -33 -29 -15 -34 -15 -48 -2 -13 13 -8 23
43 82 32 36 76 79 98 95 49 36 258 115 705 267 74 25 158 54 185 65 28 10 118
42 200 71 83 28 159 55 170 60 11 4 43 15 70 24 28 9 100 36 160 60 61 24 171
67 245 95 74 28 162 62 195 75 33 13 168 62 300 110 286 103 574 241 688 329
21 16 35 31 32 34 -3 3 -15 -4 -28 -15 -27 -24 -234 -108 -217 -88 21 25 -6
18 -74 -18 -92 -50 -177 -81 -352 -130 -197 -55 -231 -62 -215 -43 9 11 5 16
-19 26 -16 7 -30 15 -30 19 0 13 147 62 196 66 29 2 60 8 70 14 35 19 149 59
189 67 22 4 35 9 30 11 -6 2 -100 -15 -209 -37 -145 -29 -203 -37 -217 -30
-13 8 -29 6 -55 -5 -39 -16 -84 -21 -69 -7 17 14 88 31 130 31 41 -1 335 53
635 116 91 19 192 39 225 45 33 7 101 23 150 37 50 14 110 25 135 25 161 -3
189 -2 229 13 24 8 66 31 93 51 50 35 171 73 338 105 53 11 60 14 40 20 l-25
7 25 2 c25 1 25 1 3 10 -35 14 -27 19 15 9 20 -5 82 -6 138 -3 l101 7 6 -43
c3 -23 7 -43 9 -45 7 -7 252 35 468 80 310 64 439 90 550 109 175 31 200 37
200 48 0 7 19 9 53 6 28 -3 99 -3 157 1 58 3 166 3 240 0 74 -4 146 -7 159 -8z
m-2484 -21 c13 -6 15 -9 5 -9 -8 0 -22 4 -30 9 -18 12 -2 12 25 0z m148 -46
c60 -20 106 -38 104 -40 -4 -4 -218 63 -226 71 -10 11 19 3 122 -31z m177 -60
l35 -14 -35 6 c-40 7 -76 24 -50 23 8 0 31 -7 50 -15z m-3290 -157 c-136 -61
-154 -65 -240 -56 -41 4 -88 8 -105 9 -61 4 15 18 100 19 44 1 112 10 150 20
39 11 81 19 95 19 l25 1 -25 -12z m2933 -22 c-49 -23 -183 -56 -220 -54 -10 0
32 13 92 29 61 15 121 33 135 38 49 21 44 10 -7 -13z m1949 -7 c-5 -7 -13 -32
-17 -55 -4 -24 -11 -43 -17 -43 -5 0 -7 8 -4 18 16 53 18 75 8 68 -6 -3 -13
-20 -17 -36 -7 -33 -20 -37 -48 -15 -18 13 -15 16 35 44 56 33 77 39 60 19z
m78 -31 c0 -2 -15 -16 -32 -33 l-33 -29 29 33 c28 30 36 37 36 29z m-3783
-233 c-3 -3 -12 -4 -19 -1 -8 3 -5 6 6 6 11 1 17 -2 13 -5z m-1136 -24 c31
-17 22 -28 -33 -39 -104 -19 -175 -22 -188 -6 -14 17 -15 16 60 39 55 17 134
20 161 6z m2053 -12 c-3 -4 -9 -8 -15 -8 -5 0 -9 4 -9 8 0 5 7 9 15 9 8 0 12
-4 9 -9z m-53 -26 c-26 -18 -109 -57 -99 -47 17 17 113 73 118 68 3 -3 -6 -13
-19 -21z m-578 1 c-7 -2 -19 -2 -25 0 -7 3 -2 5 12 5 14 0 19 -2 13 -5z
m-2595 -42 c37 -21 72 -40 77 -42 36 -13 395 -236 395 -245 0 -6 -9 -40 -21
-77 l-21 -66 -48 6 c-26 3 -81 2 -121 -1 l-74 -7 -18 -67 c-10 -37 -22 -82
-26 -100 -12 -46 -29 -62 -63 -62 -56 0 -94 28 -268 196 -310 299 -297 281
-260 361 14 31 26 44 47 48 35 8 146 41 238 71 39 12 76 23 83 23 8 1 44 -16
80 -38z m1067 -440 c7 -12 -43 -27 -135 -40 -151 -21 -191 -19 -132 9 70 33
252 54 267 31z m-396 -211 c0 -3 -18 -20 -40 -38 -49 -42 -131 -71 -339 -117
-91 -20 -174 -40 -185 -45 -11 -4 -65 -13 -120 -19 -176 -20 -186 -13 -45 34
47 15 100 36 117 47 20 12 41 17 53 13 25 -8 27 10 3 24 -15 9 -13 11 12 12
17 1 33 1 38 0 59 -9 277 33 376 73 48 19 132 30 130 16z m70 -68 c-115 -122
-144 -154 -147 -163 -2 -5 -13 -9 -25 -8 -15 0 -17 2 -7 6 16 6 70 62 143 148
23 27 36 46 30 41 -7 -4 -13 -3 -13 3 0 9 40 20 49 14 3 -2 -11 -20 -30 -41z
m1765 37 c-10 -18 -70 -39 -106 -38 -29 0 -25 3 32 24 76 27 84 29 74 14z m86
-369 c8 -15 8 -21 -2 -24 -7 -2 -43 -12 -80 -23 -48 -15 -69 -18 -77 -10 -21
21 -11 36 32 47 23 6 53 15 67 20 39 13 48 12 60 -10z m-2492 -285 c-3 -3 -9
2 -12 12 -6 14 -5 15 5 6 7 -7 10 -15 7 -18z m-363 -16 c22 -5 49 -14 60 -19
11 -5 38 -14 60 -19 91 -21 180 -59 194 -84 13 -22 12 -27 -8 -56 -13 -18 -31
-31 -44 -31 -40 0 -279 127 -319 170 -21 22 -38 42 -38 45 0 9 53 5 95 -6z
m4925 -519 c0 -5 -4 -10 -10 -10 -5 0 -10 5 -10 10 0 6 5 10 10 10 6 0 10 -4
10 -10z m200 -492 c0 -5 -4 -8 -10 -8 -5 0 -10 10 -10 23 0 18 2 19 10 7 5 -8
10 -18 10 -22z m-4607 -555 c-7 -2 -19 -2 -25 0 -7 3 -2 5 12 5 14 0 19 -2 13
-5z m22 -153 c-3 -5 -14 -10 -23 -10 -15 0 -15 2 -2 10 20 13 33 13 25 0z m80
-10 c-3 -5 -18 -10 -33 -9 l-27 1 25 8 c35 11 42 11 35 0z m5479 -105 c-4 -8
-8 -15 -10 -15 -2 0 -4 7 -4 15 0 8 4 15 10 15 5 0 7 -7 4 -15z"/>
<path d="M8545 4607 c-107 -23 -119 -26 -113 -32 4 -5 200 34 207 41 11 11
-11 9 -94 -9z"/>
<path d="M9062 4605 c1 -16 9 -30 16 -33 18 -6 15 33 -4 49 -14 11 -15 9 -12
-16z"/>
<path d="M8775 4530 c-10 -11 -14 -20 -8 -20 5 0 18 9 28 20 10 11 14 20 8 20
-5 0 -18 -9 -28 -20z"/>
<path d="M7553 4490 c-13 -5 -26 -23 -31 -42 -8 -29 -6 -37 17 -61 26 -29 58
-30 88 -5 21 17 15 71 -11 96 -26 24 -30 25 -63 12z"/>
<path d="M7283 4415 c-22 -10 -33 -22 -38 -46 -7 -29 -3 -36 23 -61 28 -24 35
-26 61 -17 24 8 32 19 37 46 6 30 2 39 -22 63 -27 27 -31 28 -61 15z"/>
<path d="M6860 4234 c-107 -36 -323 -107 -480 -159 l-285 -94 -3 -38 c-2 -32
2 -43 32 -72 l35 -34 65 18 c52 14 69 15 80 5 22 -18 114 14 126 44 11 30 81
52 109 34 31 -19 158 24 163 55 4 25 69 50 76 29 2 -7 11 -12 20 -12 25 0 325
101 337 113 7 7 5 8 -5 5 -335 -112 -333 -111 -345 -95 -10 14 -17 14 -49 5
-23 -7 -41 -21 -46 -34 -6 -16 -28 -28 -75 -44 -61 -20 -67 -21 -78 -6 -11 15
-16 15 -60 0 -32 -11 -51 -24 -57 -39 -6 -15 -25 -28 -54 -38 -41 -14 -47 -14
-61 0 -14 13 -22 13 -77 -6 l-62 -21 -33 32 c-22 21 -33 41 -33 60 0 27 1 27
474 183 260 85 478 155 484 155 6 0 14 5 17 10 10 17 -12 11 -215 -56z"/>
<path d="M7102 4255 c18 -21 28 -44 31 -75 l4 -45 1 45 c2 49 -1 55 -38 85
-24 19 -24 19 2 -10z"/>
<path d="M7465 4239 c-4 -6 -5 -12 -2 -15 2 -3 7 2 10 11 7 17 1 20 -8 4z"/>
<path d="M6125 4211 c-12 -5 9 -7 50 -4 91 6 105 11 30 12 -33 0 -69 -4 -80
-8z"/>
<path d="M7450 4202 c0 -13 45 -21 62 -11 10 7 10 9 -2 9 -8 0 -25 3 -37 6
-13 4 -23 2 -23 -4z"/>
<path d="M6945 2980 c3 -5 8 -10 11 -10 2 0 4 5 4 10 0 6 -5 10 -11 10 -5 0
-7 -4 -4 -10z"/>
<path d="M7746 1955 c4 -8 10 -12 15 -9 11 6 2 24 -11 24 -5 0 -7 -7 -4 -15z"/>
<path d="M3440 926 c0 -9 5 -16 10 -16 6 0 10 4 10 9 0 6 -4 13 -10 16 -5 3
-10 -1 -10 -9z"/>
</g>

    <svg
            class="icon"
            viewBox="0 0 3840 1024"
            version="1.1"
            xmlns="http://www.w3.org/2000/svg"
            xmlns:xlink="http://www.w3.org/1999/xlink"
    >
        <style>
            @keyframes float-easy {
            0% {
            transform: translate3d(0,0,0);
            }
            100% {
            transform: translate3d(0,-90px,0);
            }
            }

            @keyframes float-api {
            0% {
            transform: translate3d(0,0px,0);
            }
            100% {
            transform: translate3d(0,-90px,0);
            }
            }

            svg > path.easy {
            animation: float-easy ease-in-out 3s infinite alternate;
            }
            svg > path.api {
            animation: float-api ease-in-out 3s infinite alternate;
            }

            @keyframes move {
            0% {
            transform: translate3d(-60px,0,0);
            }
            100% {
            transform: translate3d(60px,0,0);
            }
            }
            svg > text.flagIconText {
            animation: move ease-in-out 4s infinite alternate;
            }
        </style>
        <svg
                viewBox="0 0 1024 1024"
                version="1.1"
                xmlns="http://www.w3.org/2000/svg"
                xmlns:xlink="http://www.w3.org/1999/xlink"
                width="240"
                height="240"
                x="100"
                y="780"
        >
            <path
                    d="M643.2 633.6h115.2L643.2 435.2V432H640l-83.2-140.8 3.2 176-6.4 393.6H348.8l-240-352L374.4 67.2H265.6L0 508.8l291.2 444.8h342.4v-3.2h3.2z"
                    fill="#7fecad"
            />
            <path
                    d="M732.8 67.2H387.2l-6.4 320H265.6l115.2 195.2v6.4h3.2l83.2 137.6-3.2-172.8 6.4-396.8h204.8l240 352-265.6 444.8h108.8L1024 508.8z"
                    fill="#16a951"
            />
        </svg>

        <text
                class="flagIconText"
                x="1300"
                y="600"
                font-size="600px"
                font-weight="bolder"
                textLength="1400"
                fill="rgb(127 236 173 / 60%)"
        >
            resy
        </text>
        <text
                x="400"
                y="950"
                font-size="200px"
                font-weight="bolder"
                textLength="3000"
                fill="rgb(127 236 173 / 40%)"
        >
            react state easy
        </text>
        <svg
                viewBox="0 0 3840 1024"
                version="1.1"
                xmlns="http://www.w3.org/2000/svg"
                xmlns:xlink="http://www.w3.org/1999/xlink"
                x="0"
                y="150"
        >
            <path
                    class="easy"
                    d="M699.5456 182.1184H397.6576v184.5888h299.2256v73.8432H397.6576v235.5712h299.2256v74.7136H321.2928V107.4048h378.2528v74.7136zM1259.8144 750.8352h-71.9232v-70.3232c-52.6976 57.4336-113.3568 86.144-182.016 86.144-68.672 0-127.424-25.0496-176.256-75.1616-48.832-50.0992-73.2544-109.8752-73.2544-179.3152s24.5504-128.9088 73.6896-178.432c49.1264-49.4976 109.0688-74.2784 179.8016-74.2784 70.72 0 130.0864 28.4416 178.0224 85.2608v-72.9472h71.9232v479.0528zM1011.2 698.9696c49.1264 0 91.456-17.5744 126.9632-52.736 35.52-35.1616 53.2736-78.9632 53.2736-131.4176 0-52.4416-17.4592-96.384-52.3776-131.8528-34.9312-35.456-77.696-53.1712-128.3072-53.1712s-93.376 18.3296-128.3072 54.9376c-34.9312 36.6208-52.3904 79.8464-52.3904 129.6512 0 49.8176 17.7664 93.0432 53.2736 129.6512 35.5328 36.6208 78.144 54.9376 127.872 54.9376zM1627.4176 328.0256l-47.0528 48.3456c-34.9312-32.2304-66.9056-48.3456-95.8976-48.3456-18.3552 0-33.7408 5.7088-46.1696 17.152-12.4288 11.4304-18.6496 25.4848-18.6496 42.1888s6.9504 31.3472 20.864 43.9552c13.9008 12.608 38.6304 28.1216 74.1376 46.592 35.52 18.4448 62.8864 38.8224 82.1376 61.0816 19.2256 22.272 28.8512 49.5232 28.8512 81.7536 0 41.024-14.3616 75.584-43.0592 103.7184-28.7232 28.1216-64.0768 42.2016-106.112 42.2016-58.5984 0-107.4432-24.6144-146.5088-73.8432l46.1696-50.9824c31.9616 36.928 64.512 55.3728 97.664 55.3728 22.4896 0 41.728-7.3088 57.7152-21.9776 15.9872-14.6432 23.9744-31.7696 23.9744-51.4176 0-19.6224-7.2576-36.032-21.76-49.2288-14.5024-13.184-39.3728-28.5568-74.5856-46.144-35.2256-17.5744-61.8624-37.056-79.9104-58.4448-18.0608-21.3888-27.0848-49.5104-27.0848-84.3904 0-34.8544 12.8768-64.6016 38.6304-89.216s59.776-36.928 102.1056-36.928c42.3296 0 87.168 22.8608 134.5408 68.5568zM2123.7376 271.7824l-286.7968 648.6912h-76.3648l93.2352-210.944L1657.6 271.7824h76.352l158.9376 350.7072 153.6128-350.7072h77.2352z"
                    fill="rgb(127 236 173 / 9%)"
            />
            <path
                    class="api"
                    d="M2328.6528 102.4l-257.7536 640h107.4048l193.3056-512h42.9568l171.84 512h107.392L2457.5232 102.4zM3430.4 102.4h89.6v640h-89.6zM3088.1152 102.4H2982.4v435.2h105.7152c116.3136 0 210.6624-98.2528 210.6624-217.6 0-119.296-94.3488-217.6-210.6624-217.6zM2828.8 102.4h89.6v640h-89.6z"
                    fill="rgb(22 169 81 / 6%)"
            />
        </svg>
    </svg>

</svg>
