<svg
  class="icon"
  viewBox="0 0 3840 1024"
  version="1.1"
  xmlns="http://www.w3.org/2000/svg"
  xmlns:xlink="http://www.w3.org/1999/xlink"
  width="730"
  height="400"
  style="background-image: linear-gradient(90deg, rgb(22 169 81 / 90%) 0%, rgb(127 236 173 / 90%) 100%)"
>
    <style>
        @keyframes float-easy {
        0% {
        transform: translate3d(0,0,0);
        }
        100% {
        transform: translate3d(-60px,0,0);
        }
        }
        
        @keyframes float-api {
        0% {
        transform: translate3d(0,0px,0);
        }
        100% {
        transform: translate3d(0,-60px,0);
        }
        }
        
        svg > path.easy {
        animation: float-easy ease-in-out 3s infinite alternate;
        }
        svg > path.api {
        animation: float-api ease-in-out 3s infinite alternate;
        }
        
        @keyframes reactLeft {
        0% {
        transform: translate3d(0,0,0) rotate(0);
        }
        100% {
        transform: translate3d(100%,0,0) rotate(180deg);
        }
        }
        path.reactIconLeft {
        animation: reactLeft linear 48s infinite alternate;
        }
        
        @keyframes reactRight {
        0% {
        transform: translate3d(80%,0,0) rotate(0);
        }
        100% {
        transform: translate3d(0,0,0) rotate(180deg);
        }
        }
        path.reactIconRight {
        animation: reactRight linear 48s infinite alternate;
        }
    
        @keyframes move {
        0% {
        transform: translateX(-60px);
        }
        100% {
        transform: translateX(60px);
        }
        }
        svg > text.flagIconText {
        animation: move linear 4s infinite alternate;
        }
    </style>
    <text
      class="flagIconText"
      x="1000"
      y="300"
      stroke-width="8"
      stroke="rgb(22 169 81 / 10%)"
      font-size="900px"
      font-weight="bolder"
      textLength="2000"
      fill="rgb(127 236 173 / 90%)"
      style="background-image: linear-gradient(90deg, #16a951 0%, #7fecad 100%)"
    >
        resy
    </text>
    <svg
      class="icon"
      viewBox="0 0 3840 1024"
      version="1.1"
      xmlns="http://www.w3.org/2000/svg"
      xmlns:xlink="http://www.w3.org/1999/xlink"
      x="0"
      y="0"
    >
        <path
          class="reactIconLeft"
          d="M836.4 354.4c-10.8-3.6-21.6-7-32.4-10.2 1.8-7.4 3.4-14.8 5-22.2 24.6-119.2 8.4-215-46.2-246.6-52.6-30.2-138.4 1.2-225.2 76.8-8.6 7.4-17 15.2-25 23-5.4-5.2-11-10.4-16.6-15.4-91-80.8-182.2-114.8-236.8-83-52.4 30.4-68 120.6-46 233.4 2.2 11.2 4.6 22.2 7.4 33.4-12.8 3.6-25.4 7.6-37.2 11.8C76.6 392.4 0 450.8 0 511.2c0 62.4 81.6 125 192.6 163 9 3 18 6 27.2 8.6-3 12-5.6 23.8-8 36-21 111-4.6 199 47.8 229.2 54 31.2 144.8-0.8 233.2-78.2 7-6.2 14-12.6 21-19.4 8.8 8.6 18 16.8 27.2 24.8 85.6 73.6 170.2 103.4 222.4 73.2 54-31.2 71.6-125.8 48.8-241-1.8-8.8-3.8-17.8-6-27 6.4-1.8 12.6-3.8 18.8-5.8 115.4-38.2 199-100 199-163.4 0-60.6-78.8-119.4-187.6-156.8zM565.8 184.6c74.4-64.8 143.8-90.2 175.4-72 33.8 19.4 46.8 97.8 25.6 200.8-1.4 6.8-2.8 13.4-4.6 20-44.4-10-89.4-17.2-134.6-21.2-26-37.2-54.4-72.8-85.2-106.2 7.8-7.4 15.4-14.4 23.4-21.4zM334.4 615c10.2 17.4 20.6 34.8 31.6 51.8-31.2-3.4-62.2-8.4-92.8-15 8.8-28.8 19.8-58.6 32.6-89 9.2 17.6 18.6 35 28.6 52.2z m-60.6-240.6c28.8-6.4 59.4-11.6 91.2-15.6-10.6 16.6-21 33.6-30.8 50.8-9.8 17-19.4 34.4-28.4 52-12.6-29.8-23.2-59-32-87.2z m54.8 137.8c13.2-27.6 27.6-54.6 42.8-81.2s31.6-52.4 48.8-77.8c30-2.2 60.6-3.4 91.8-3.4s62 1.2 91.8 3.4c17 25.2 33.2 51 48.6 77.4s29.8 53.4 43.4 80.8c-13.4 27.6-27.8 54.8-43.2 81.6-15.2 26.6-31.4 52.4-48.4 78-29.8 2.2-60.8 3.2-92.2 3.2s-61.8-1-91.2-2.8c-17.4-25.4-33.8-51.4-49.2-78s-29.6-53.6-43-81.2z m361.2 102.4c10.2-17.6 19.8-35.4 29.2-53.4 12.8 29 24 58.4 33.8 88.6-31 7-62.4 12.4-94 16 10.8-16.8 21-34 31-51.2z m28.8-153c-9.4-17.6-19-35.2-29-52.4-9.8-17-20-33.8-30.6-50.4 32.2 4 63 9.4 91.8 16-9.2 29.6-20 58.4-32.2 86.8zM512.4 236.6c21 22.8 40.8 46.8 59.2 71.6-39.6-1.8-79.4-1.8-119 0 19.6-25.8 39.8-49.8 59.8-71.6zM280.4 114c33.6-19.6 108.2 8.4 186.8 78 5 4.4 10 9.2 15.2 14-31 33.4-59.6 69-85.8 106.2-45.2 4-90 11-134.4 20.8-2.6-10.2-4.8-20.6-7-31-18.8-96.8-6.4-169.8 25.2-188z m-49 527.2c-8.4-2.4-16.6-5-24.8-7.8-42.6-13.4-91-34.6-126-62.4-20.2-14-33.8-35.6-37.6-59.8 0-36.6 63.2-83.4 154.4-115.2 11.4-4 23-7.6 34.6-11 13.6 43.4 30 86 49 127.2-19.2 41.8-35.8 85-49.6 129z m233.2 196c-33 30.2-71.2 54.2-112.8 70.6-22.2 10.6-47.8 11.6-70.6 2.6-31.8-18.4-45-89-27-184 2.2-11.2 4.6-22.4 7.4-33.4 44.8 9.6 90 16.2 135.8 19.6 26.4 37.4 55.4 73.2 86.4 106.8-6.4 6.2-12.8 12.2-19.2 17.8z m49-48.6c-20.4-22-40.8-46.4-60.6-72.6 19.2 0.8 39 1.2 59 1.2 20.6 0 40.8-0.4 60.8-1.4-18.4 25.4-38.2 49.6-59.2 72.8z m261.4 60c-1.8 24.4-13.8 47.2-33 62.6-31.8 18.4-99.6-5.6-172.8-68.4-8.4-7.2-16.8-15-25.4-23 30.6-33.8 58.8-69.6 84.4-107.2 45.8-3.8 91.4-10.8 136.4-21 2 8.2 3.8 16.4 5.4 24.4 9.8 43.2 11.4 88.2 5 132.6z m36.4-215c-5.6 1.8-11.2 3.6-17 5.2-14-43.6-31.2-86.2-51-127.6 19.2-40.8 35.4-82.8 49-125.8 10.4 3 20.4 6.2 30 9.4 93.2 32 158.6 79.6 158.6 116 0 39.2-69.8 89.8-169.6 122.8z m-299.4-30c50.6 0 91.6-41 91.6-91.6s-41-91.6-91.6-91.6c-50.6 0-91.6 41-91.6 91.6s41 91.6 91.6 91.6z"
          fill="rgb(127 236 173 / 15%)"
        />
        <path
          class="reactIconRight"
          d="M836.4 354.4c-10.8-3.6-21.6-7-32.4-10.2 1.8-7.4 3.4-14.8 5-22.2 24.6-119.2 8.4-215-46.2-246.6-52.6-30.2-138.4 1.2-225.2 76.8-8.6 7.4-17 15.2-25 23-5.4-5.2-11-10.4-16.6-15.4-91-80.8-182.2-114.8-236.8-83-52.4 30.4-68 120.6-46 233.4 2.2 11.2 4.6 22.2 7.4 33.4-12.8 3.6-25.4 7.6-37.2 11.8C76.6 392.4 0 450.8 0 511.2c0 62.4 81.6 125 192.6 163 9 3 18 6 27.2 8.6-3 12-5.6 23.8-8 36-21 111-4.6 199 47.8 229.2 54 31.2 144.8-0.8 233.2-78.2 7-6.2 14-12.6 21-19.4 8.8 8.6 18 16.8 27.2 24.8 85.6 73.6 170.2 103.4 222.4 73.2 54-31.2 71.6-125.8 48.8-241-1.8-8.8-3.8-17.8-6-27 6.4-1.8 12.6-3.8 18.8-5.8 115.4-38.2 199-100 199-163.4 0-60.6-78.8-119.4-187.6-156.8zM565.8 184.6c74.4-64.8 143.8-90.2 175.4-72 33.8 19.4 46.8 97.8 25.6 200.8-1.4 6.8-2.8 13.4-4.6 20-44.4-10-89.4-17.2-134.6-21.2-26-37.2-54.4-72.8-85.2-106.2 7.8-7.4 15.4-14.4 23.4-21.4zM334.4 615c10.2 17.4 20.6 34.8 31.6 51.8-31.2-3.4-62.2-8.4-92.8-15 8.8-28.8 19.8-58.6 32.6-89 9.2 17.6 18.6 35 28.6 52.2z m-60.6-240.6c28.8-6.4 59.4-11.6 91.2-15.6-10.6 16.6-21 33.6-30.8 50.8-9.8 17-19.4 34.4-28.4 52-12.6-29.8-23.2-59-32-87.2z m54.8 137.8c13.2-27.6 27.6-54.6 42.8-81.2s31.6-52.4 48.8-77.8c30-2.2 60.6-3.4 91.8-3.4s62 1.2 91.8 3.4c17 25.2 33.2 51 48.6 77.4s29.8 53.4 43.4 80.8c-13.4 27.6-27.8 54.8-43.2 81.6-15.2 26.6-31.4 52.4-48.4 78-29.8 2.2-60.8 3.2-92.2 3.2s-61.8-1-91.2-2.8c-17.4-25.4-33.8-51.4-49.2-78s-29.6-53.6-43-81.2z m361.2 102.4c10.2-17.6 19.8-35.4 29.2-53.4 12.8 29 24 58.4 33.8 88.6-31 7-62.4 12.4-94 16 10.8-16.8 21-34 31-51.2z m28.8-153c-9.4-17.6-19-35.2-29-52.4-9.8-17-20-33.8-30.6-50.4 32.2 4 63 9.4 91.8 16-9.2 29.6-20 58.4-32.2 86.8zM512.4 236.6c21 22.8 40.8 46.8 59.2 71.6-39.6-1.8-79.4-1.8-119 0 19.6-25.8 39.8-49.8 59.8-71.6zM280.4 114c33.6-19.6 108.2 8.4 186.8 78 5 4.4 10 9.2 15.2 14-31 33.4-59.6 69-85.8 106.2-45.2 4-90 11-134.4 20.8-2.6-10.2-4.8-20.6-7-31-18.8-96.8-6.4-169.8 25.2-188z m-49 527.2c-8.4-2.4-16.6-5-24.8-7.8-42.6-13.4-91-34.6-126-62.4-20.2-14-33.8-35.6-37.6-59.8 0-36.6 63.2-83.4 154.4-115.2 11.4-4 23-7.6 34.6-11 13.6 43.4 30 86 49 127.2-19.2 41.8-35.8 85-49.6 129z m233.2 196c-33 30.2-71.2 54.2-112.8 70.6-22.2 10.6-47.8 11.6-70.6 2.6-31.8-18.4-45-89-27-184 2.2-11.2 4.6-22.4 7.4-33.4 44.8 9.6 90 16.2 135.8 19.6 26.4 37.4 55.4 73.2 86.4 106.8-6.4 6.2-12.8 12.2-19.2 17.8z m49-48.6c-20.4-22-40.8-46.4-60.6-72.6 19.2 0.8 39 1.2 59 1.2 20.6 0 40.8-0.4 60.8-1.4-18.4 25.4-38.2 49.6-59.2 72.8z m261.4 60c-1.8 24.4-13.8 47.2-33 62.6-31.8 18.4-99.6-5.6-172.8-68.4-8.4-7.2-16.8-15-25.4-23 30.6-33.8 58.8-69.6 84.4-107.2 45.8-3.8 91.4-10.8 136.4-21 2 8.2 3.8 16.4 5.4 24.4 9.8 43.2 11.4 88.2 5 132.6z m36.4-215c-5.6 1.8-11.2 3.6-17 5.2-14-43.6-31.2-86.2-51-127.6 19.2-40.8 35.4-82.8 49-125.8 10.4 3 20.4 6.2 30 9.4 93.2 32 158.6 79.6 158.6 116 0 39.2-69.8 89.8-169.6 122.8z m-299.4-30c50.6 0 91.6-41 91.6-91.6s-41-91.6-91.6-91.6c-50.6 0-91.6 41-91.6 91.6s41 91.6 91.6 91.6z"
          fill="rgb(22 169 81 / 15%)"
        />
    </svg>
    <svg
      class="icon"
      viewBox="0 0 3840 1024"
      version="1.1"
      xmlns="http://www.w3.org/2000/svg"
      xmlns:xlink="http://www.w3.org/1999/xlink"
      x="0"
      y="600"
    >
        <path
          class="easy"
          d="M699.5456 182.1184H397.6576v184.5888h299.2256v73.8432H397.6576v235.5712h299.2256v74.7136H321.2928V107.4048h378.2528v74.7136zM1259.8144 750.8352h-71.9232v-70.3232c-52.6976 57.4336-113.3568 86.144-182.016 86.144-68.672 0-127.424-25.0496-176.256-75.1616-48.832-50.0992-73.2544-109.8752-73.2544-179.3152s24.5504-128.9088 73.6896-178.432c49.1264-49.4976 109.0688-74.2784 179.8016-74.2784 70.72 0 130.0864 28.4416 178.0224 85.2608v-72.9472h71.9232v479.0528zM1011.2 698.9696c49.1264 0 91.456-17.5744 126.9632-52.736 35.52-35.1616 53.2736-78.9632 53.2736-131.4176 0-52.4416-17.4592-96.384-52.3776-131.8528-34.9312-35.456-77.696-53.1712-128.3072-53.1712s-93.376 18.3296-128.3072 54.9376c-34.9312 36.6208-52.3904 79.8464-52.3904 129.6512 0 49.8176 17.7664 93.0432 53.2736 129.6512 35.5328 36.6208 78.144 54.9376 127.872 54.9376zM1627.4176 328.0256l-47.0528 48.3456c-34.9312-32.2304-66.9056-48.3456-95.8976-48.3456-18.3552 0-33.7408 5.7088-46.1696 17.152-12.4288 11.4304-18.6496 25.4848-18.6496 42.1888s6.9504 31.3472 20.864 43.9552c13.9008 12.608 38.6304 28.1216 74.1376 46.592 35.52 18.4448 62.8864 38.8224 82.1376 61.0816 19.2256 22.272 28.8512 49.5232 28.8512 81.7536 0 41.024-14.3616 75.584-43.0592 103.7184-28.7232 28.1216-64.0768 42.2016-106.112 42.2016-58.5984 0-107.4432-24.6144-146.5088-73.8432l46.1696-50.9824c31.9616 36.928 64.512 55.3728 97.664 55.3728 22.4896 0 41.728-7.3088 57.7152-21.9776 15.9872-14.6432 23.9744-31.7696 23.9744-51.4176 0-19.6224-7.2576-36.032-21.76-49.2288-14.5024-13.184-39.3728-28.5568-74.5856-46.144-35.2256-17.5744-61.8624-37.056-79.9104-58.4448-18.0608-21.3888-27.0848-49.5104-27.0848-84.3904 0-34.8544 12.8768-64.6016 38.6304-89.216s59.776-36.928 102.1056-36.928c42.3296 0 87.168 22.8608 134.5408 68.5568zM2123.7376 271.7824l-286.7968 648.6912h-76.3648l93.2352-210.944L1657.6 271.7824h76.352l158.9376 350.7072 153.6128-350.7072h77.2352z"
          fill="rgb(127 236 173 / 10%)"
        />
        <path
          class="api"
          d="M2328.6528 102.4l-257.7536 640h107.4048l193.3056-512h42.9568l171.84 512h107.392L2457.5232 102.4zM3430.4 102.4h89.6v640h-89.6zM3088.1152 102.4H2982.4v435.2h105.7152c116.3136 0 210.6624-98.2528 210.6624-217.6 0-119.296-94.3488-217.6-210.6624-217.6zM2828.8 102.4h89.6v640h-89.6z"
          fill="rgb(22 169 81 / 10%)"
        />
    </svg>
</svg>
