<svg xmlns="http://www.w3.org/2000/svg" xmlns:xlink="http://www.w3.org/1999/xlink" class="icon" viewBox="0 0 3840 1024" width="730px" height="240px" version="1.1" x="0px" y="0px">
    <svg
      class="icon"
      version="1.1"
      xmlns="http://www.w3.org/2000/svg"
      viewBox="0 0 3840 1024"
      width="100%"
      x="1220"
      y="-120"
    >
        <path d="M743.905882 276.781176l45.477647 44.694589a30.117647 30.117647 0 0 1 1.566118 41.261176l-132.035765 151.491765a30.117647 30.117647 0 0 1-45.537882-0.180706L341.052235 197.391059a30.117647 30.117647 0 0 0-45.778823 0.180706l-106.014118 125.108706a30.117647 30.117647 0 0 0-0.783059 37.948235l336.414118 432.850823a30.117647 30.117647 0 0 0 48.067765-0.602353L1133.929412 30.72a30.117647 30.117647 0 0 1 47.22447-1.626353l249.253647 294.249412a30.117647 30.117647 0 0 1 1.505883 37.104941L974.607059 995.508706a30.117647 30.117647 0 0 1-45.598118 3.855059l-129.505882-127.397647a30.117647 30.117647 0 0 1-2.831059-39.755294l49.995294-65.475765a30.117647 30.117647 0 0 1 44.995765-3.192471l19.034353 18.672941a52.103529 52.103529 0 0 0 78.848-6.746353l297.803294-415.021176a30.117647 30.117647 0 0 0-1.505882-37.044706l-104.32753-123.181176a30.117647 30.117647 0 0 0-47.525647 2.048L572.416 991.593412a30.117647 30.117647 0 0 1-48.007529 1.385412L16.384 361.712941a30.117647 30.117647 0 0 1 1.385412-39.454117L295.574588 24.094118a30.72 30.72 0 0 1 44.93553 0l274.492235 294.550588a30.117647 30.117647 0 0 0 43.128471 0.963765l43.550117-42.827295a30.117647 30.117647 0 0 1 42.285177 0z" fill="#6B59AF"></path>
    </svg>
    <text
      x="920"
      y="1100"
      font-size="200px"
      font-family="serif"
      font-style="italic"
      font-weight="bolder"
      textLength="2000"
      fill="rgb(107 89 175 / 50%)"
    >
        react state easy
    </text>
    <svg xmlns="http://www.w3.org/2000/svg" viewBox="0 0 3840 1024" version="1.1" x="0" y="-100px">
        <path class="easy" d="M699.5456 182.1184H397.6576v184.5888h299.2256v73.8432H397.6576v235.5712h299.2256v74.7136H321.2928V107.4048h378.2528v74.7136zM1259.8144 750.8352h-71.9232v-70.3232c-52.6976 57.4336-113.3568 86.144-182.016 86.144-68.672 0-127.424-25.0496-176.256-75.1616-48.832-50.0992-73.2544-109.8752-73.2544-179.3152s24.5504-128.9088 73.6896-178.432c49.1264-49.4976 109.0688-74.2784 179.8016-74.2784 70.72 0 130.0864 28.4416 178.0224 85.2608v-72.9472h71.9232v479.0528zM1011.2 698.9696c49.1264 0 91.456-17.5744 126.9632-52.736 35.52-35.1616 53.2736-78.9632 53.2736-131.4176 0-52.4416-17.4592-96.384-52.3776-131.8528-34.9312-35.456-77.696-53.1712-128.3072-53.1712s-93.376 18.3296-128.3072 54.9376c-34.9312 36.6208-52.3904 79.8464-52.3904 129.6512 0 49.8176 17.7664 93.0432 53.2736 129.6512 35.5328 36.6208 78.144 54.9376 127.872 54.9376zM1627.4176 328.0256l-47.0528 48.3456c-34.9312-32.2304-66.9056-48.3456-95.8976-48.3456-18.3552 0-33.7408 5.7088-46.1696 17.152-12.4288 11.4304-18.6496 25.4848-18.6496 42.1888s6.9504 31.3472 20.864 43.9552c13.9008 12.608 38.6304 28.1216 74.1376 46.592 35.52 18.4448 62.8864 38.8224 82.1376 61.0816 19.2256 22.272 28.8512 49.5232 28.8512 81.7536 0 41.024-14.3616 75.584-43.0592 103.7184-28.7232 28.1216-64.0768 42.2016-106.112 42.2016-58.5984 0-107.4432-24.6144-146.5088-73.8432l46.1696-50.9824c31.9616 36.928 64.512 55.3728 97.664 55.3728 22.4896 0 41.728-7.3088 57.7152-21.9776 15.9872-14.6432 23.9744-31.7696 23.9744-51.4176 0-19.6224-7.2576-36.032-21.76-49.2288-14.5024-13.184-39.3728-28.5568-74.5856-46.144-35.2256-17.5744-61.8624-37.056-79.9104-58.4448-18.0608-21.3888-27.0848-49.5104-27.0848-84.3904 0-34.8544 12.8768-64.6016 38.6304-89.216s59.776-36.928 102.1056-36.928c42.3296 0 87.168 22.8608 134.5408 68.5568zM2123.7376 271.7824l-286.7968 648.6912h-76.3648l93.2352-210.944L1657.6 271.7824h76.352l158.9376 350.7072 153.6128-350.7072h77.2352z" fill="rgb(107 89 175 / 9%)"/>
        <path class="api" d="M2328.6528 102.4l-257.7536 640h107.4048l193.3056-512h42.9568l171.84 512h107.392L2457.5232 102.4zM3430.4 102.4h89.6v640h-89.6zM3088.1152 102.4H2982.4v435.2h105.7152c116.3136 0 210.6624-98.2528 210.6624-217.6 0-119.296-94.3488-217.6-210.6624-217.6zM2828.8 102.4h89.6v640h-89.6z" fill="rgb(107 89 175 / 9%)"/>
    </svg>
</svg>
