<?xml version="1.0" standalone="no"?><!DOCTYPE svg PUBLIC "-//W3C//DTD SVG 1.1//EN" "http://www.w3.org/Graphics/SVG/1.1/DTD/svg11.dtd"><svg t="1716539866902" class="icon" viewBox="0 0 1445 1024" version="1.1" xmlns="http://www.w3.org/2000/svg" p-id="6586" xmlns:xlink="http://www.w3.org/1999/xlink" width="282.2265625" height="200"><path d="M743.905882 276.781176l45.477647 44.694589a30.117647 30.117647 0 0 1 1.566118 41.261176l-132.035765 151.491765a30.117647 30.117647 0 0 1-45.537882-0.180706L341.052235 197.391059a30.117647 30.117647 0 0 0-45.778823 0.180706l-106.014118 125.108706a30.117647 30.117647 0 0 0-0.783059 37.948235l336.414118 432.850823a30.117647 30.117647 0 0 0 48.067765-0.602353L1133.929412 30.72a30.117647 30.117647 0 0 1 47.22447-1.626353l249.253647 294.249412a30.117647 30.117647 0 0 1 1.505883 37.104941L974.607059 995.508706a30.117647 30.117647 0 0 1-45.598118 3.855059l-129.505882-127.397647a30.117647 30.117647 0 0 1-2.831059-39.755294l49.995294-65.475765a30.117647 30.117647 0 0 1 44.995765-3.192471l19.034353 18.672941a52.103529 52.103529 0 0 0 78.848-6.746353l297.803294-415.021176a30.117647 30.117647 0 0 0-1.505882-37.044706l-104.32753-123.181176a30.117647 30.117647 0 0 0-47.525647 2.048L572.416 991.593412a30.117647 30.117647 0 0 1-48.007529 1.385412L16.384 361.712941a30.117647 30.117647 0 0 1 1.385412-39.454117L295.574588 24.094118a30.72 30.72 0 0 1 44.93553 0l274.492235 294.550588a30.117647 30.117647 0 0 0 43.128471 0.963765l43.550117-42.827295a30.117647 30.117647 0 0 1 42.285177 0z" fill="#6B59AF" p-id="6587"></path></svg>